<?xml version="1.0" encoding="utf-8"?>
<svg viewBox="100 100 300 300" xmlns="http://www.w3.org/2000/svg" xmlns:bx="https://boxy-svg.com">
  <g transform="matrix(0.400351, 0, 0, 0.407213, 193.714264, 135.162476)">
    <path d="M 368.063 96.014 C 475.237 201.252 475.237 372.513 368.063 477.751 L 355.108 465.028 C 455.118 366.809 455.118 206.956 355.108 108.738 C 260.025 15.341 104.892 8.3 5.087 88.925 L 54.619 88.925 L 54.619 106.92 L -18.677 106.92 C -23.734 106.92 -27.838 102.888 -27.838 97.922 L -27.838 25.941 L -9.513 25.941 L -9.513 77.425 C 97.279 -11.446 265.432 -4.762 368.063 96.014 Z" fill="#FFDA44"/>
    <path d="M 243.17 199.931 C 350.344 305.169 350.344 476.43 243.17 581.668 L 230.215 568.945 C 330.225 470.726 330.225 310.873 230.215 212.655 C 135.132 119.257 -20.001 112.216 -119.806 192.842 L -70.274 192.842 L -70.274 210.837 L -143.57 210.837 C -148.627 210.837 -152.731 206.805 -152.731 201.839 L -152.731 129.857 L -134.406 129.857 L -134.406 181.342 C -27.614 92.47 140.539 99.154 243.17 199.931 Z" fill="#FFDA44" transform="matrix(-0.999928, -0.011379, 0.012675, -0.999928, 170.117154, 712.012612)" bx:origin="0.504 0.511"/>
    <line style="stroke-width: 18.0781px; stroke-linecap: round; stroke-linejoin: round; paint-order: stroke; stroke: rgb(232, 108, 54);" x1="-63.257" y1="137.23" x2="357.695" y2="471.272"/>
  </g>
</svg>